<svg xmlns="http://www.w3.org/2000/svg" viewBox="0 0 32 32"><path fill="#fff" d="M15.8 7.2c2.3 0 4.5.9 6.2 2.5 1.7 1.6 2.7 3.8 2.8 6.2.1 2.3-.7 4.5-2.2 6.3-1.7 1.9-4.2 3.1-6.8 3-1.4 0-2.7-.3-3.9-.9l-4.7 1s-.1 0-.1-.1l.8-4.8c-.7-1.2-1.1-2.6-1.1-4.1-.1-2.4.8-4.7 2.4-6.4 1.7-1.6 4.1-2.7 6.6-2.7zm-.1 1.6h-.2c-4.1.1-7.3 3.5-7.2 7.6 0 1.3.4 2.5 1 3.6l.1.2-.6 3.2 3.2-.8.2.1c1.1.6 2.4.9 3.6.8 4.1-.1 7.3-3.5 7.2-7.6.1-3.9-3.2-7.1-7.3-7.1zm-3.1 3.1h.4c.2 0 .3 0 .5.4.2.5.6 1.6.6 1.7.1.1.1.2 0 .4-.1.1-.1.2-.2.4-.1.1-.2.3-.3.4-.1.1-.2.2-.1.5.1.2.6 1 1.2 1.6.8.8 1.5 1.1 1.8 1.2.1 0 .2.1.2.1.1 0 .2 0 .2-.1.1-.1.6-.6.7-.9.1-.1.2-.2.3-.2.1 0 .1 0 .2.1.2.1 1.3.7 1.5.8.2.1.4.2.4.3s0 .5-.2 1.1c-.2.5-1.1 1-1.6 1h-.4c-.4 0-1-.1-2.3-.7-2.3-1-3.6-3.4-3.8-3.5-.1-.2-.9-1.3-.9-2.4 0-1.1.6-1.6.8-1.9.6-.2.8-.3 1-.3z"/></svg>